<?xml version="1.0" encoding="utf-8"?>
<!-- Generator: Adobe Illustrator 21.1.0, SVG Export Plug-In . SVG Version: 6.00 Build 0)  -->
<svg version="1.1" id="_x31_" xmlns="http://www.w3.org/2000/svg" xmlns:xlink="http://www.w3.org/1999/xlink" x="0px" y="0px"
	 viewBox="0 0 48 11.3" style="enable-background:new 0 0 48 11.3;" xml:space="preserve">
<style type="text/css">
	.st0{fill-rule:evenodd;clip-rule:evenodd;fill:#FFFFFF;}
</style>
<path class="st0" d="M16.8,8.3h-0.3c-0.1,0-0.1,0-0.1,0.1v1.4c0,0.2-0.1,0.3-0.4,0.3s-0.4-0.1-0.4-0.3V8.4c0-0.1,0-0.1-0.1-0.1h-0.3
	c-0.1,0-0.1,0-0.1,0.1v1.5c0,0.5,0.5,0.7,0.9,0.7c0.4,0,0.9-0.2,0.9-0.7V8.4C16.9,8.4,16.9,8.3,16.8,8.3L16.8,8.3z M19.5,10h-0.4
	C19,10,19,10,19,10.1v0.4c0,0.1,0,0.1,0.1,0.1h0.4c0.1,0,0.1,0,0.1-0.1v-0.4C19.6,10,19.5,10,19.5,10L19.5,10z M21.8,10.5l-0.8-2.1
	c0-0.1-0.1-0.1-0.1-0.1h-0.3c-0.1,0-0.1,0-0.1,0.1l-0.8,2.1c0,0,0,0.1,0.1,0.1h0.4c0.1,0,0.1,0,0.1-0.1l0.1-0.3h0.8l0.1,0.3
	c0,0.1,0.1,0.1,0.1,0.1L21.8,10.5C21.8,10.6,21.8,10.6,21.8,10.5L21.8,10.5z M20.5,9.8L20.8,9L21,9.8H20.5L20.5,9.8z M23.7,9.9
	c0-0.1,0-0.1-0.1-0.1h-0.3c-0.1,0-0.1,0.1-0.1,0.1c0,0.2-0.2,0.2-0.4,0.2c-0.2,0-0.4-0.1-0.4-0.3V9.1c0-0.2,0.2-0.3,0.4-0.3
	c0.2,0,0.3,0.1,0.4,0.2c0,0,0,0.1,0.1,0.1h0.3c0.1,0,0.1,0,0.1-0.1c0-0.4-0.5-0.7-0.9-0.7c-0.4,0-0.9,0.2-0.9,0.8v0.8
	c0,0.5,0.5,0.8,0.9,0.8C23.3,10.7,23.7,10.4,23.7,9.9L23.7,9.9L23.7,9.9z M26,10.5l-0.8-2.1c0-0.1-0.1-0.1-0.1-0.1h-0.3
	c-0.1,0-0.1,0-0.1,0.1l-0.8,2.1c0,0,0,0.1,0.1,0.1h0.4c0.1,0,0.1,0,0.1-0.1l0.1-0.3h0.8l0.1,0.3c0,0.1,0.1,0.1,0.1,0.1L26,10.5
	C26,10.6,26,10.6,26,10.5L26,10.5z M24.6,9.8L24.9,9l0.3,0.8H24.6L24.6,9.8z M27,8.3h-0.8c-0.1,0-0.1,0-0.1,0.1v2.1
	c0,0.1,0,0.1,0.1,0.1H27c0.4,0,0.9-0.2,0.9-0.8V9.1C27.9,8.6,27.4,8.3,27,8.3L27,8.3z M27.4,9.8c0,0.2-0.2,0.3-0.4,0.3h-0.3V8.8H27
	c0.2,0,0.4,0.1,0.4,0.3V9.8L27.4,9.8z M29.9,10.1h-1.1V9.7h0.9c0.1,0,0.1,0,0.1-0.1V9.3c0-0.1,0-0.1-0.1-0.1h-0.9V8.8h1
	c0.1,0,0.1,0,0.1-0.1V8.4c0-0.1,0-0.1-0.1-0.1h-1.5c-0.1,0-0.1,0-0.1,0.1v2.1c0,0.1,0,0.1,0.1,0.1h1.5c0.1,0,0.1,0,0.1-0.1v-0.3
	C30,10.2,29.9,10.1,29.9,10.1L29.9,10.1z M32.3,8.3h-0.3c-0.1,0-0.1,0.1-0.2,0.1l-0.5,0.8l-0.5-0.8c0,0,0-0.1-0.2-0.1h-0.3
	c-0.1,0-0.1,0-0.1,0.1v2.1c0,0.1,0,0.1,0.1,0.1h0.3c0.1,0,0.1,0,0.1-0.1V9.3l0.3,0.6c0,0,0,0.1,0.1,0.1h0.2c0.1,0,0.1,0,0.1-0.1
	l0.3-0.6v1.2c0,0.1,0,0.1,0.1,0.1h0.3c0.1,0,0.1,0,0.1-0.1V8.4C32.4,8.4,32.3,8.3,32.3,8.3L32.3,8.3z M34.5,8.3h-0.4
	c-0.1,0-0.1,0-0.2,0.1l-0.4,0.7l-0.4-0.7c0-0.1-0.1-0.1-0.2-0.1h-0.4c-0.1,0-0.1,0.1-0.1,0.1l0.7,1.3v0.8c0,0.1,0,0.1,0.1,0.1h0.3
	c0.1,0,0.1,0,0.1-0.1V9.8L34.5,8.3C34.5,8.4,34.5,8.3,34.5,8.3L34.5,8.3z M26.2,4.4c0-0.2,0.2-0.4,0.4-0.4c0.2,0,0.4,0.2,0.4,0.4
	v1.2c0,0.2-0.1,0.3-0.2,0.3l-1.7,0.8l0,0l0,0l0,0l0,0l0,0l0,0c0,0-0.1,0-0.1,0h0l0,0h0h0h0h0l0,0h0c0,0-0.1,0-0.1,0l0,0l0,0l0,0l0,0
	l0,0l0,0l-1.7-0.8c-0.1,0-0.2-0.2-0.2-0.3V4.4C22.7,4.2,22.9,4,23,4c0.2,0,0.4,0.2,0.4,0.4v1L24.8,6l1.4-0.6V4.4L26.2,4.4z
	 M24.8,0.6L24.8,0.6L24.8,0.6L24.8,0.6L24.8,0.6c-0.1,0-0.1,0-0.1,0l0,0l0,0l0,0l0,0l0,0l0,0l0,0l0,0l-3.2,1.6
	c-0.2,0.1-0.2,0.3-0.2,0.5c0,0.1,0.1,0.1,0.2,0.2v0l0.9,0.4c0.2,0.1,0.4,0,0.5-0.2c0.1-0.2,0-0.4-0.2-0.5l-0.2-0.1l2.4-1.2l2.4,1.2
	l-2.4,1.2l-0.6-0.3l1-0.5c0.2-0.1,0.2-0.3,0.2-0.5c-0.1-0.2-0.3-0.2-0.5-0.2l-1.7,0.8c-0.1,0-0.1,0.1-0.2,0.2
	c-0.1,0.2,0,0.4,0.2,0.5l1.4,0.7c0.1,0.1,0.2,0.1,0.3,0l3.2-1.6l0,0c0.1,0,0.1-0.1,0.2-0.2c0.1-0.2,0-0.4-0.2-0.5L25,0.7l0,0l0,0
	l0,0l0,0l0,0l0,0l0,0l0,0C24.9,0.6,24.9,0.6,24.8,0.6L24.8,0.6z M18.7,10.1h-1l0.9-1.3c0,0,0-0.1,0-0.1V8.4c0-0.1,0-0.1-0.1-0.1
	h-1.4c-0.1,0-0.1,0-0.1,0.1v0.3c0,0.1,0,0.1,0.1,0.1h0.8l-0.9,1.3c0,0,0,0.1,0,0.1v0.3c0,0.1,0,0.1,0.1,0.1h1.5c0.1,0,0.1,0,0.1-0.1
	v-0.3C18.8,10.2,18.8,10.1,18.7,10.1z"/>
</svg>
