<?xml version="1.0" encoding="utf-8"?>
<!-- Generator: Adobe Illustrator 21.1.0, SVG Export Plug-In . SVG Version: 6.00 Build 0)  -->
<svg version="1.1" id="_x31_" xmlns="http://www.w3.org/2000/svg" xmlns:xlink="http://www.w3.org/1999/xlink" x="0px" y="0px"
	 viewBox="0 0 48 11.3" style="enable-background:new 0 0 48 11.3;" xml:space="preserve">
<style type="text/css">
	.st0{fill-rule:evenodd;clip-rule:evenodd;fill:rgba(255, 255, 255, 0.9);}
</style>
<g>
	<path class="st0" d="M14.3,5.2h-0.6c-0.1,0-0.2,0-0.2,0.2v2.6c0,0.4-0.3,0.6-0.7,0.6c-0.4,0-0.7-0.2-0.7-0.6V5.4
		c0-0.1-0.1-0.2-0.2-0.2h-0.6c-0.1,0-0.2,0-0.2,0.2v2.8c0,1,0.9,1.4,1.7,1.4c0.8,0,1.7-0.4,1.7-1.4V5.4C14.5,5.3,14.4,5.2,14.3,5.2z
		"/>
	<path class="st0" d="M17.9,8.6h-1.8l1.7-2.4c0.1-0.1,0.1-0.2,0.1-0.3V5.4c0-0.1,0-0.2-0.2-0.2h-2.6c-0.1,0-0.2,0.1-0.2,0.2V6
		c0,0.1,0,0.2,0.2,0.2h1.6l-1.8,2.4c0,0-0.1,0.1-0.1,0.2v0.5c0,0.2,0,0.2,0.2,0.2h2.8c0.1,0,0.2-0.1,0.2-0.2V8.8
		C18.1,8.7,18,8.6,17.9,8.6z"/>
	<path class="st0" d="M19.3,8.4h-0.7c-0.1,0-0.2,0-0.2,0.2v0.7c0,0.1,0.1,0.2,0.2,0.2h0.7c0.1,0,0.2,0,0.2-0.2V8.6
		C19.5,8.5,19.4,8.4,19.3,8.4z"/>
	<path class="st0" d="M23.7,9.4l-1.4-3.9c-0.1-0.1-0.1-0.2-0.3-0.2h-0.6c-0.1,0-0.2,0.1-0.3,0.2l-1.4,3.9c0,0.1,0,0.2,0.1,0.2h0.7
		c0.1,0,0.2,0,0.2-0.2l0.2-0.5h1.6l0.2,0.5c0.1,0.2,0.1,0.2,0.2,0.2h0.7C23.8,9.5,23.8,9.4,23.7,9.4L23.7,9.4z M21.2,7.9l0.5-1.4
		l0.5,1.4H21.2z"/>
	<path class="st0" d="M27.3,8.3c0-0.2-0.1-0.2-0.2-0.2h-0.6c-0.1,0-0.2,0.1-0.2,0.2c-0.1,0.3-0.3,0.4-0.7,0.4
		c-0.4,0-0.7-0.2-0.7-0.7V6.7c0-0.4,0.3-0.7,0.7-0.7c0.4,0,0.5,0.1,0.7,0.3c0.1,0.1,0.1,0.2,0.2,0.2h0.6c0.1,0,0.2,0,0.2-0.2
		c-0.1-0.8-0.9-1.2-1.7-1.2c-0.8,0-1.7,0.4-1.7,1.5v1.5c0,1,1,1.5,1.7,1.5C26.5,9.6,27.3,9.1,27.3,8.3L27.3,8.3z"/>
	<path class="st0" d="M31.6,9.4l-1.4-3.9c-0.1-0.1-0.1-0.2-0.3-0.2h-0.6c-0.1,0-0.2,0.1-0.3,0.2l-1.4,3.9c0,0.1,0,0.2,0.1,0.2h0.7
		c0.1,0,0.2,0,0.2-0.2l0.2-0.5h1.6l0.2,0.5c0.1,0.2,0.1,0.2,0.2,0.2h0.7C31.6,9.5,31.6,9.4,31.6,9.4L31.6,9.4z M29,7.9l0.5-1.4
		L30,7.9H29z"/>
	<path class="st0" d="M33.5,5.2H32c-0.1,0-0.2,0.1-0.2,0.2v3.9c0,0.1,0,0.2,0.2,0.2h1.5c0.8,0,1.8-0.4,1.8-1.5V6.7
		C35.3,5.7,34.3,5.2,33.5,5.2L33.5,5.2z M34.2,8c0,0.4-0.3,0.7-0.7,0.7h-0.6V6.2h0.6c0.4,0,0.7,0.2,0.7,0.7V8z"/>
	<path class="st0" d="M38.9,8.6h-2.1V7.8h1.7c0.1,0,0.2-0.1,0.2-0.2V7.1c0-0.1,0-0.2-0.2-0.2h-1.7V6.2h2C38.9,6.2,39,6.1,39,6V5.4
		c0-0.1,0-0.2-0.2-0.2H36c-0.1,0-0.2,0.1-0.2,0.2v3.9c0,0.1,0,0.2,0.2,0.2h2.9c0.1,0,0.2-0.1,0.2-0.2V8.8
		C39.1,8.7,39.1,8.6,38.9,8.6z"/>
	<path class="st0" d="M43.4,5.2h-0.6c-0.2,0-0.2,0.1-0.3,0.2l-0.9,1.6l-0.9-1.6c-0.1-0.1-0.1-0.2-0.3-0.2h-0.6
		c-0.1,0-0.2,0.1-0.2,0.2v3.9c0,0.1,0.1,0.2,0.2,0.2h0.6c0.1,0,0.2,0,0.2-0.2V7.1l0.7,1.1c0,0.1,0.1,0.1,0.2,0.1h0.3
		c0.1,0,0.2-0.1,0.2-0.1l0.7-1.1v2.2c0,0.1,0.1,0.2,0.2,0.2h0.6c0.1,0,0.2,0,0.2-0.2V5.4C43.6,5.3,43.6,5.2,43.4,5.2z"/>
	<path class="st0" d="M47.6,5.2h-0.7c-0.2,0-0.2,0-0.3,0.2l-0.7,1.4l-0.8-1.4c-0.1-0.2-0.2-0.2-0.3-0.2H44c-0.1,0-0.1,0.1-0.1,0.2
		l1.4,2.5v1.4c0,0.1,0.1,0.2,0.2,0.2h0.7c0.1,0,0.2,0,0.2-0.2V7.9l1.3-2.5C47.7,5.4,47.7,5.2,47.6,5.2z"/>
	<path class="st0" d="M7.6,6.7c0-0.3,0.2-0.5,0.5-0.5c0.3,0,0.5,0.2,0.5,0.5v1.8c0,0.2-0.1,0.4-0.4,0.5l-2.6,1.1l0,0l0,0l0,0l0,0
		l0,0l0,0c0,0-0.1,0-0.1,0l0,0h0l0,0h0h0l0,0h0l0,0c0,0-0.1,0-0.1,0l0,0l0,0l0,0l0,0l0,0l0,0L2.8,9C2.5,8.9,2.4,8.7,2.4,8.5V6.7
		c0-0.3,0.2-0.5,0.5-0.5c0.3,0,0.5,0.2,0.5,0.5v1.5l2.1,0.9l2.1-0.9V6.7L7.6,6.7z M5.6,1.1L5.6,1.1L5.6,1.1L5.6,1.1L5.6,1.1
		c-0.1,0-0.1,0-0.2,0l0,0l0,0l0,0l0,0l0,0l0,0l0,0l0,0L0.5,3.5C0.3,3.6,0.2,3.9,0.3,4.2c0.1,0.1,0.1,0.2,0.3,0.2v0l1.3,0.6
		c0.3,0.1,0.6,0,0.7-0.3c0.1-0.3,0-0.6-0.3-0.7L2,4l3.6-1.8L9.1,4L5.6,5.7l-1-0.4l1.5-0.8c0.3-0.1,0.4-0.4,0.2-0.7
		C6.2,3.5,5.9,3.4,5.6,3.6L3.2,4.8C3.1,4.9,3,5,2.9,5.1c-0.1,0.3,0,0.6,0.3,0.7l2.1,1c0.1,0.1,0.3,0.1,0.5,0l4.7-2.3l0,0
		c0.1,0,0.2-0.1,0.2-0.2c0.1-0.3,0-0.6-0.2-0.7L5.8,1.1l0,0l0,0l0,0l0,0l0,0l0,0l0,0l0,0C5.7,1.1,5.6,1.1,5.6,1.1z"/>
</g>
</svg>
